<?xml version="1.0" encoding="utf-8"?>
<!-- Generator: Adobe Illustrator 21.0.0, SVG Export Plug-In . SVG Version: 6.00 Build 0)  -->
<svg version="1.1" id="OnsenUI_Logo" xmlns="http://www.w3.org/2000/svg" xmlns:xlink="http://www.w3.org/1999/xlink" x="0px"
	 y="0px" viewBox="0 0 283.5 276.9" style="enable-background:new 0 0 283.5 276.9;" xml:space="preserve">
<style type="text/css">
	.st0{opacity:0.75;}
	.st1{fill:#FFFFFF;}
</style>
<g class="st0">
	<g>
		<g>
			<g>
				<path class="st1" d="M221.7,76.1c5,5.1,9.6,11.8,11.5,18.6c9.3,32.6-25.1,70.1-75.6,84.5c-50.5,14.4-99.4,0.6-108.7-32.1
					c-1.9-6.8-1.5-14.8,0.1-21.9c2.5-11.3-15.9,13.1-9.2,36.4c10.7,37.8,63.1,52.6,121.6,36s98.1-57.6,87.3-95.4
					C242,78.9,213.6,67.9,221.7,76.1z"/>
			</g>
			<path class="st1" d="M222.1,0c-31.7,33.4,14.6,104.8-54.4,138.4c37.2-49.5,8.2-105.6,16.8-122.6C193.1-1.2,222.1,0,222.1,0z"/>
			<path class="st1" d="M171.3,13.1C96.7,42.9,153.3,149,119.8,133c-6-3.5-11.3-9.3-14.1-19.1c-5.2-17.6-8.6-62.7,23.8-89
				c-26.1,7.7-49.4,27.5-53.3,50.4c-4.1,24,5.7,50-10.4,69.2c33.1,8.6,60.7,11.3,79.8-3.5c2.7-1.8,5.4-4.5,8.2-8.3
				C169.9,110,145.4,50.8,171.3,13.1z"/>
		</g>
	</g>
	<g>
		<path class="st1" d="M0,256.5c0-8.2,2.4-14.9,7.1-20c4.8-5.1,10.5-7.6,17.3-7.6c5.8,0,10.4,1.9,14.1,5.6c3.6,3.7,5.4,8.8,5.4,15.1
			c0,4.5-0.9,8.7-2.7,12.5c-1.4,2.9-3.1,5.4-5.2,7.4c-2.1,2.1-4.3,3.7-6.7,4.8c-3.1,1.5-6.5,2.3-10,2.3c-3.7,0-7.1-0.9-10.1-2.6
			c-3-1.8-5.3-4.2-6.9-7.4C0.8,263.4,0,260,0,256.5z M6.1,256.8c0,2.7,0.6,5.2,1.7,7.5s2.8,4,5,5.3s4.6,1.9,7,1.9s4.6-0.6,6.8-1.7
			c2.1-1.1,4.1-2.7,5.7-4.7c1.7-2,3-4.5,4-7.4s1.5-5.8,1.5-8.6c0-4.6-1.3-8.2-3.9-11c-2.6-2.7-5.8-4.1-9.5-4.1
			c-4.8,0-9.1,2.1-12.8,6.2C7.9,244.3,6.1,249.8,6.1,256.8z"/>
		<path class="st1" d="M48.8,275.8l7-33.5H61l-1.2,5.8c2.2-2.3,4.3-4,6.3-5c2-1.1,3.9-1.6,6-1.6c2.7,0,4.8,0.7,6.4,2.2
			c1.5,1.5,2.3,3.4,2.3,5.9c0,1.2-0.3,3.2-0.8,5.8l-4.2,20.3h-5.7l4.4-21.2c0.4-2.1,0.7-3.6,0.7-4.6c0-1.1-0.4-2-1.1-2.7
			c-0.8-0.7-1.9-1-3.3-1c-2.9,0-5.5,1.1-7.8,3.1c-2.3,2.1-4,5.7-5,10.8l-3.2,15.6h-6V275.8z"/>
		<path class="st1" d="M87.3,264.4L93,264c0,1.6,0.3,3,0.8,4.2s1.4,2.1,2.8,2.8c1.4,0.7,2.9,1.1,4.7,1.1c2.5,0,4.4-0.5,5.7-1.5
			c1.3-1,1.9-2.2,1.9-3.6c0-1-0.4-1.9-1.1-2.8c-0.8-0.9-2.7-2-5.7-3.3s-4.9-2.2-5.8-2.7c-1.4-0.9-2.5-1.9-3.2-3
			c-0.7-1.2-1.1-2.5-1.1-4c0-2.6,1.1-4.9,3.1-6.8c2.1-1.9,5-2.8,8.8-2.8c4.2,0,7.4,1,9.6,2.9s3.3,4.5,3.4,7.7l-5.6,0.4
			c-0.1-2-0.8-3.6-2.1-4.8c-1.3-1.2-3.2-1.8-5.7-1.8c-2,0-3.5,0.5-4.6,1.4s-1.6,1.9-1.6,2.9c0,1.1,0.5,2,1.4,2.8
			c0.6,0.6,2.3,1.4,4.9,2.5c4.4,1.9,7.1,3.4,8.2,4.5c1.8,1.7,2.7,3.9,2.7,6.4c0,1.7-0.5,3.3-1.5,4.9s-2.6,2.9-4.7,3.8
			s-4.6,1.4-7.4,1.4c-3.9,0-7.1-1-9.9-2.9C88.4,271.8,87.1,268.7,87.3,264.4z"/>
		<path class="st1" d="M146.6,264.4l5.5,0.6c-0.8,2.8-2.6,5.4-5.5,7.8c-2.9,2.5-6.3,3.7-10.2,3.7c-2.5,0-4.8-0.6-6.8-1.7
			c-2.1-1.2-3.6-2.8-4.7-5s-1.6-4.7-1.6-7.5c0-3.6,0.8-7.2,2.5-10.6c1.7-3.4,3.9-6,6.6-7.6c2.7-1.7,5.6-2.5,8.7-2.5
			c4,0,7.2,1.2,9.6,3.7c2.4,2.5,3.6,5.9,3.6,10.1c0,1.6-0.2,3.3-0.4,5h-24.6c-0.1,0.6-0.1,1.2-0.1,1.8c0,3.1,0.7,5.5,2.2,7.2
			c1.4,1.7,3.2,2.5,5.3,2.5c2,0,3.9-0.6,5.8-1.9C144,268.7,145.5,266.8,146.6,264.4z M130,256.1h18.8c0-0.6,0-1,0-1.3
			c0-2.8-0.7-5-2.2-6.6c-1.4-1.5-3.3-2.3-5.5-2.3c-2.4,0-4.7,0.8-6.7,2.5C132.5,250.2,131,252.8,130,256.1z"/>
		<path class="st1" d="M159,275.8l7-33.5h5.2l-1.2,5.8c2.2-2.3,4.3-4,6.3-5c2-1.1,3.9-1.6,6-1.6c2.7,0,4.8,0.7,6.4,2.2
			c1.5,1.5,2.3,3.4,2.3,5.9c0,1.2-0.3,3.2-0.8,5.8l-4.3,20.3h-5.7l4.4-21.2c0.4-2.1,0.7-3.6,0.7-4.6c0-1.1-0.4-2-1.2-2.7
			s-1.9-1-3.3-1c-2.9,0-5.5,1.1-7.8,3.1c-2.3,2.1-4,5.7-5,10.8l-3.2,15.6H159V275.8z"/>
		<path class="st1" d="M220.5,229.3h9.6l-5.3,25.4l-1.3,6.2c-0.1,0.5-0.1,1-0.1,1.5c0,1.9,0.7,3.4,2,4.6c1.4,1.2,3.3,1.8,5.9,1.8
			c2.3,0,4.2-0.4,5.7-1.3s2.7-2.2,3.5-3.9c0.8-1.7,1.7-4.6,2.5-8.8l5.4-25.5h9.6l-5.3,25.6c-1.1,5.4-2.4,9.5-3.9,12.3
			s-3.7,5.2-6.7,6.9c-3,1.8-6.7,2.7-11.3,2.7c-5.4,0-9.6-1.3-12.5-4s-4.3-6.1-4.3-10.3c0-0.9,0.1-1.8,0.2-2.8
			c0.1-0.7,0.5-2.6,1.1-5.8L220.5,229.3z"/>
		<path class="st1" d="M264.1,276.1l9.8-46.7h9.6l-9.8,46.7H264.1z"/>
	</g>
</g>
</svg>
